<svg width="133" height="121" viewBox="0 0 133 121" fill="none" xmlns="http://www.w3.org/2000/svg">
<path d="M66.5265 0.916764C74.9731 0.926652 82.7833 5.43559 86.9738 12.7L128.714 84.0545C133.058 91.3972 133.152 100.5 128.96 107.93C124.763 115.37 116.919 119.989 108.281 120.073H24.6388C16.0905 120.003 8.23169 115.369 4.03435 107.924C-0.159328 100.484 -0.0618581 91.3609 4.26775 84.0808L46.0236 12.7C50.2662 5.39702 58.0792 0.906915 66.5265 0.916764ZM66.5129 12.8328C62.3162 12.8279 58.4347 15.0593 56.3185 18.7019L14.5324 90.1345C12.3647 93.7795 12.3156 98.3472 14.4152 102.072C16.5173 105.801 20.4538 108.121 24.6877 108.156L108.224 108.157C112.55 108.115 116.48 105.8 118.581 102.075C120.68 98.3547 120.632 93.7978 118.443 90.0965L76.6701 18.6853C74.5889 15.0779 70.709 12.8378 66.5129 12.8328ZM66.5021 84.324C69.7939 84.324 72.4621 86.9913 72.4621 90.282C72.462 93.5726 69.7938 96.24 66.5021 96.24C63.2104 96.24 60.5422 93.5727 60.5422 90.282C60.5422 86.9913 63.2103 84.324 66.5021 84.324ZM72.4797 78.365H60.5597V36.657H72.4797V78.365Z" fill="#007EA7"/>
</svg>
