<svg width="20" height="18" viewBox="0 0 20 18" fill="none" xmlns="http://www.w3.org/2000/svg">
<path d="M10 0C15.5203 0 20 1.49324 20 4V14L19.9912 14.1885C19.8147 16.1166 16.9292 17.4122 13 17.8428V12.1855C12.0737 12.0699 11.0612 12 10 12C8.93883 12 7.92631 12.0699 7 12.1855V17.8428C3.07083 17.4122 0.185258 16.1166 0.00878906 14.1885L0 14V4C0 1.49324 4.47973 0 10 0ZM18 6.52734C17.1914 6.94754 16.1706 7.28439 15 7.5293V15.4678C16.8293 15.0491 18 14.4615 18 14V6.52734ZM2 14L2.00586 14.0586C2.09882 14.5104 3.24722 15.0666 5 15.4678V7.5293C3.82942 7.28439 2.80863 6.94754 2 6.52734V14ZM10 2C5.57914 2 2 3.19305 2 4C2 4.61326 4.0672 5.44932 7 5.81543V10.1592C7.94721 10.0554 8.95485 10 10 10C11.0451 10 12.0528 10.0554 13 10.1592V5.81543C15.9328 5.44932 18 4.61326 18 4C18 3.19305 14.4209 2 10 2Z" fill="#007EA7"/>
</svg>
