<svg width="85" height="109" viewBox="0 0 85 109" fill="none" xmlns="http://www.w3.org/2000/svg">
<path fill-rule="evenodd" clip-rule="evenodd" d="M38.2073 54.0518C41.0533 50.0573 40.7357 45.8504 38.7622 38.2829C34.8593 23.3167 36.4134 15.1136 49.8683 5.40178L56.4354 0.661621L58.0238 8.60347C59.7119 17.0437 62.484 22.264 69.6019 32.3053C69.8847 32.7042 69.8847 32.7042 70.1688 33.1048C80.4217 47.5698 84.1666 56.2896 84.1666 72.1249C84.1666 91.3351 64.7466 108.583 42.4999 108.583C20.2521 108.583 0.833278 91.3374 0.833278 72.1249C0.833278 71.7658 0.833646 71.7767 0.772801 70.1898C0.302199 57.9156 2.57187 48.3091 11.7555 37.9367C13.6959 35.7451 15.9014 33.6388 18.3834 31.6234L23.8625 27.1742L26.4982 33.7217C28.4457 38.5596 30.7275 42.3627 33.3052 45.1536C35.4884 47.5174 37.108 50.4898 38.2073 54.0518ZM19.5546 44.8419C12.4849 52.8266 10.8042 59.9406 11.1818 69.7907C11.2521 71.6244 11.2499 71.5599 11.2499 72.1249C11.2499 85.291 25.7479 98.1666 42.4999 98.1666C59.2507 98.1666 73.7499 85.2888 73.7499 72.1249C73.7499 58.8864 70.7902 51.9948 61.6704 39.1285C61.3879 38.73 61.3879 38.73 61.1038 38.3293C55.5653 30.5161 52.2639 25.0811 50.0798 19.0026C46.5129 23.2769 46.7226 27.528 48.8418 35.6544C52.7448 50.6206 51.1906 58.8237 37.7357 68.5355L30.0639 74.0731L29.4887 64.629C29.1213 58.5949 27.7555 54.4976 25.653 52.2212C23.5758 49.9722 21.7003 47.3392 20.0184 44.3269C19.8616 44.4981 19.7069 44.6698 19.5546 44.8419Z" fill="white"/>
</svg>
