<svg width="24" height="24" viewBox="0 0 24 24" fill="none" xmlns="http://www.w3.org/2000/svg">
<path fill-rule="evenodd" clip-rule="evenodd" d="M19.5857 12.9999H12.9999V19.5857L15.2928 17.2928L16.707 18.707L11.9999 23.4141L7.2928 18.707L8.70701 17.2928L10.9999 19.5857V12.9999H4.41412L6.70701 15.2928L5.2928 16.707L0.585693 11.9999L5.2928 7.2928L6.70701 8.70701L4.41412 10.9999H10.9999V4.41412L8.70701 6.70701L7.2928 5.2928L11.9999 0.585693L16.707 5.2928L15.2928 6.70701L12.9999 4.41412V10.9999H19.5857L17.2928 8.70701L18.707 7.2928L23.4141 11.9999L18.707 16.707L17.2928 15.2928L19.5857 12.9999Z" fill="#007EA7"/>
</svg>
