<svg width="30" height="34" viewBox="0 0 30 34" fill="none" xmlns="http://www.w3.org/2000/svg">
<path fill-rule="evenodd" clip-rule="evenodd" d="M11.6954 30.3396C11.704 30.5443 11.682 30.7441 11.6388 30.9463C11.5631 31.3017 11.4168 31.6777 11.2097 32.0251C10.621 33.0127 9.62091 33.6717 8.33333 33.6717C5.30016 33.6717 4.10973 32.1837 2.61921 28.4574C1.60973 25.9337 1.1335 25.3384 0 25.3384L0 22.005C3.03317 22.005 4.22361 23.4931 5.71413 27.2194C6.72361 29.7431 7.19984 30.3384 8.33333 30.3384C8.33333 29.8548 8.32671 29.4264 8.31277 28.8463C8.2801 27.4866 8.27635 27.209 8.33567 26.8456C8.35937 26.0521 8.56422 25.4891 8.97499 24.9303C5.25532 24.1205 2.74653 22.4482 1.30662 19.7358L0.767228 18.4673C0.241742 16.9572 0 15.246 0 13.2699C0 10.9939 0.69391 8.95899 1.99003 7.25794C1.58571 5.64104 1.64108 3.66553 2.53385 1.4345L2.82557 0.70549L3.57345 0.466262C3.67358 0.434233 3.79531 0.405305 3.93832 0.382859C5.3946 0.154293 7.46684 0.699629 10.1759 2.4349C11.7729 2.0647 13.4547 1.87779 15.148 1.87779C16.6611 1.87779 18.1658 2.03033 19.6027 2.33106C22.2384 0.680506 24.2537 0.162827 25.6708 0.383152C25.8122 0.405131 25.9327 0.433505 26.032 0.464996L26.7845 0.703638L27.0766 1.43709C27.8576 3.39833 27.9916 5.20577 27.7074 6.78731C29.1974 8.57517 30 10.7731 30 13.2699C30 15.3748 29.8492 16.9575 29.4157 18.4973L28.9582 19.7529C27.7605 22.4624 25.1191 24.1535 21.0459 24.9589C21.4693 25.5451 21.6667 26.1402 21.6667 27.005V28.6717C21.6667 29.4794 21.6667 29.5043 21.6648 30.3384C21.6686 30.3983 21.6736 30.4276 21.6791 30.4459C21.6777 30.4464 21.6667 33.6717 21.6667 33.6717C20.247 33.6717 19.1914 32.9794 18.6723 31.8873C18.4031 31.321 18.3227 30.7804 18.3333 30.3147V27.005C18.3333 26.8653 18.3285 26.8572 17.9882 26.5169C17.0785 25.6072 16.6667 24.9209 16.6667 23.6717V22.164L18.1668 22.0134C22.6322 21.5649 25.0609 20.3248 25.8661 18.5132L26.2424 17.4845C26.5419 16.4089 26.6667 15.0989 26.6667 13.2699C26.6667 11.3264 25.9882 9.72094 24.705 8.43826L23.9997 7.73323L24.2875 6.77843C24.5433 5.93019 24.6041 4.92648 24.3335 3.78166C24.2885 3.79305 24.2418 3.80546 24.1933 3.81897C23.3009 4.06741 22.1867 4.60052 20.8441 5.49798L20.2317 5.90732L19.5168 5.73004C18.134 5.38716 16.6481 5.21112 15.148 5.21112C13.4798 5.21112 11.8308 5.42336 10.3074 5.83866L9.56401 6.04133L8.92803 5.60626C7.53938 4.65629 6.38575 4.09134 5.46071 3.82744C5.39464 3.80859 5.33173 3.79173 5.27194 3.7767C4.9492 5.10167 5.07685 6.19026 5.40372 7.0071L5.79564 7.98651L5.07814 8.75986C3.93483 9.99216 3.33333 11.4918 3.33333 13.2699C3.33333 14.8978 3.52391 16.2467 3.87314 17.2629L4.30928 18.2953C5.39956 20.3411 7.71534 21.572 11.8443 22.0145L13.3333 22.1741V23.6717C13.3333 24.9209 12.9215 25.6072 12.0118 26.5169C11.6715 26.8572 11.6667 26.8653 11.6667 27.005L11.6379 27.3132C11.6189 27.4142 11.6189 27.6751 11.6451 28.7662C11.6572 29.268 11.6641 29.6652 11.6661 30.0802C11.686 30.1661 11.689 30.2216 11.6954 30.3396Z" fill="#007EA7"/>
</svg>
