<svg width="115" height="115" viewBox="0 0 115 115" fill="none" xmlns="http://www.w3.org/2000/svg">
<path d="M57.292 0C88.9332 0.000176014 114.584 25.6508 114.584 57.292C114.584 88.933 88.933 114.584 57.292 114.584C25.6508 114.584 0.000176037 88.9332 0 57.292C1.03081e-06 25.6507 25.6507 1.03094e-06 57.292 0ZM70.1123 82.7354C65.9845 83.1282 61.6925 83.333 57.292 83.333C52.8909 83.333 48.598 83.1283 44.4697 82.7354C47.526 95.6831 52.6082 104.167 57.292 104.167C61.9757 104.167 67.0561 95.6827 70.1123 82.7354ZM13.7637 74.7139C18.5209 86.5887 27.9957 96.065 39.8701 100.822C37.0835 95.4433 34.8969 88.7367 33.4238 81.1562C25.8465 79.6827 19.1413 77.4995 13.7637 74.7139ZM100.819 74.7139C95.4417 77.4995 88.7366 79.6826 81.1592 81.1562C79.6861 88.7369 77.4996 95.4432 74.7129 100.822C86.5872 96.0649 96.062 86.5889 100.819 74.7139ZM57.292 41.667C52.1346 41.667 47.1865 41.9909 42.5664 42.5664C41.9909 47.1865 41.667 52.1346 41.667 57.292C41.667 62.4491 41.9909 67.3967 42.5664 72.0166C47.1865 72.5921 52.1346 72.917 57.292 72.917C62.4488 72.917 67.396 72.592 72.0156 72.0166C72.5911 67.3966 72.917 62.4492 72.917 57.292C72.917 52.1346 72.5912 47.1866 72.0156 42.5664C67.396 41.991 62.4488 41.667 57.292 41.667ZM31.8467 44.4697C18.8997 47.526 10.417 52.6084 10.417 57.292C10.4174 61.9755 18.9001 67.0571 31.8467 70.1133C31.4538 65.9853 31.25 61.6927 31.25 57.292C31.25 52.891 31.4538 48.598 31.8467 44.4697ZM82.7363 44.4697C83.1292 48.598 83.334 52.891 83.334 57.292C83.334 61.6927 83.1292 65.9853 82.7363 70.1133C95.6833 67.0571 104.167 61.9756 104.167 57.292C104.167 52.6083 95.6836 47.526 82.7363 44.4697ZM39.8701 13.7607C27.9956 18.5179 18.5211 27.9943 13.7637 39.8691C19.1414 37.0835 25.8462 34.8992 33.4238 33.4258C34.8969 25.8456 37.0835 19.1395 39.8701 13.7607ZM74.7129 13.7617C77.4993 19.1403 79.6861 25.846 81.1592 33.4258C88.7366 34.8992 95.4416 37.0836 100.819 39.8691C96.0619 27.9945 86.587 18.5189 74.7129 13.7617ZM57.292 10.417C52.6084 10.417 47.526 18.8996 44.4697 31.8467C48.598 31.4538 52.891 31.25 57.292 31.25C61.6925 31.25 65.9845 31.4539 70.1123 31.8467C67.0561 18.9 61.9755 10.4174 57.292 10.417Z" fill="white"/>
</svg>
