<svg width="307" height="307" viewBox="0 0 307 307" fill="none" xmlns="http://www.w3.org/2000/svg">
<path d="M153.5 12.7917C231.211 12.7917 294.207 75.7888 294.208 153.5C294.208 231.211 231.211 294.208 153.5 294.208C75.7887 294.208 12.7916 231.211 12.7916 153.5C12.7918 75.7889 75.7888 12.7919 153.5 12.7917ZM189.637 189.878C177.961 191.173 165.821 191.875 153.5 191.875C140.976 191.875 128.89 191.339 117.415 190.305C123.229 236.101 139.128 268.624 153.5 268.625C167.916 268.625 183.868 235.898 189.637 189.878ZM39.693 170.969C45.902 211.754 73.5112 245.504 110.707 260.406C100.91 241.493 94.1376 215.899 91.1949 186.894C70.6538 183.324 53.041 177.922 39.693 170.969ZM267.615 168.803C254.054 175.857 236.193 181.753 215.912 185.82C213.028 215.267 206.209 241.26 196.292 260.406C234.144 245.241 262.069 210.557 267.615 168.803ZM153.5 38.3748C135.51 38.3754 115.125 89.3372 115.125 153.5C115.125 157.17 115.195 160.798 115.324 164.375C127.323 165.629 140.143 166.292 153.5 166.292C166.649 166.292 179.55 165.362 191.695 163.789C191.811 160.402 191.875 156.97 191.875 153.5C191.875 89.3368 171.49 38.3748 153.5 38.3748ZM110.707 46.5925C72.454 61.9184 44.3402 97.1787 39.2155 139.524C42.9451 144.297 53.3136 150.405 69.1803 155.387C75.4283 157.35 82.2716 159.073 89.6139 160.538C89.5667 158.206 89.5416 155.859 89.5416 153.5C89.5417 110.934 97.2887 72.4955 110.707 46.5925ZM196.292 46.5925C209.71 72.4955 217.458 110.934 217.458 153.5C217.458 155.444 217.441 157.38 217.409 159.306C242.705 153.699 261.691 145.674 267.71 138.918C262.391 96.8419 234.362 61.8449 196.292 46.5925Z" fill="black"/>
</svg>
