<svg width="103" height="121" viewBox="0 0 103 121" fill="none" xmlns="http://www.w3.org/2000/svg">
<path d="M85.3975 1.23145C96.0303 12.2595 102.083 26.9525 102.083 42.583C102.083 73.479 78.5674 98.8826 48.458 101.872V108.125H60.375V120.042H24.625V108.125H36.541V101.871C22.9156 100.515 10.3085 94.5356 0.629883 84.9756L9.00391 76.4971C17.8713 85.2559 29.7837 90.25 42.5 90.25C68.8255 90.2499 90.166 68.9085 90.166 42.583C90.1659 30.0689 85.3307 18.3316 76.8184 9.50293L85.3975 1.23145ZM42.5 0.875C65.5347 0.875113 84.2078 19.5484 84.208 42.583C84.208 65.6178 65.5348 84.2919 42.5 84.292C19.4652 84.2919 0.791016 65.6179 0.791016 42.583C0.791192 19.5483 19.4653 0.875054 42.5 0.875ZM42.5 12.792C26.0466 12.792 12.7082 26.1297 12.708 42.583C12.708 59.0365 26.0465 72.375 42.5 72.375C58.9534 72.3749 72.292 59.0365 72.292 42.583C72.2918 26.1297 58.9533 12.7921 42.5 12.792Z" fill="#007EA7"/>
</svg>
