<svg width="73" height="105" viewBox="0 0 73 105" fill="none" xmlns="http://www.w3.org/2000/svg">
<path d="M36.458 0C56.5933 1.54623e-06 72.9158 16.3228 72.916 36.458C72.916 46.4099 69.9254 53.7749 64.0908 61.708C63.2303 62.878 60.5486 66.3439 60.291 66.6865C59.1122 68.2549 58.3796 69.3675 57.9033 70.333C57.4725 71.2065 57.2911 71.8817 57.291 72.4736V83.333C57.291 94.8389 47.9639 104.166 36.458 104.166C24.9522 104.166 15.625 94.8388 15.625 83.333V72.4736C15.6249 71.4567 15.2639 70.3464 14.4131 68.8857C13.8665 67.9474 13.151 66.9163 12.0723 65.4893C11.9325 65.3045 9.57652 62.2428 8.83496 61.2412C2.95045 53.2931 3.85214e-07 46.1967 0 36.458C0.000175747 16.3229 16.3229 0.000176273 36.458 0ZM46.875 81.5742C43.5808 82.7435 40.1005 83.333 36.458 83.333C32.8154 83.333 29.3353 82.7436 26.041 81.5742V83.333C26.041 89.0859 30.7052 93.7498 36.458 93.75C42.211 93.75 46.875 89.086 46.875 83.333V81.5742ZM36.458 10.416C22.0759 10.4162 10.4162 22.0759 10.416 36.458C10.416 43.6376 12.5344 48.732 17.2061 55.042C17.8777 55.9492 20.191 58.9543 20.3828 59.208C21.6912 60.9389 22.6174 62.2742 23.415 63.6436C24.6565 65.775 25.4784 67.8535 25.8359 70.0078C29.0827 71.9577 32.5918 72.9169 36.458 72.917C40.3334 72.917 43.8503 71.9533 47.1035 69.9941C47.3693 68.5544 47.8625 67.1416 48.5615 65.7246C49.3836 64.0581 50.4289 62.4698 51.9639 60.4277C52.2948 59.9875 54.9323 56.5802 55.7002 55.5361C60.3283 49.2434 62.5 43.8949 62.5 36.458C62.4998 22.0757 50.8403 10.416 36.458 10.416Z" fill="white"/>
</svg>
