<svg width="20" height="20" viewBox="0 0 20 20" fill="none" xmlns="http://www.w3.org/2000/svg">
<path d="M16.3145 12.8037C18.5632 13.4861 20 14.5804 20 16C20 18.5068 15.5203 20 10 20C4.47973 20 2.84051e-07 18.5068 0 16C0 14.5804 1.43678 13.4861 3.68555 12.8037L4.00195 13.2266C4.32746 13.6518 4.67961 14.0823 5.05762 14.5186C3.19539 14.938 2 15.5337 2 16C2 16.807 5.57914 18 10 18C14.4209 18 18 16.807 18 16C18 15.5337 16.8046 14.938 14.9424 14.5186C15.4462 13.937 15.9039 13.3657 16.3145 12.8037ZM10 0C13.8965 0 17 3.02141 17 7C17 9.8112 15.012 12.8371 11.0967 16.2559L10 17.2129L8.90332 16.2559C4.98799 12.8371 3 9.8112 3 7C3 3.02141 6.10349 0 10 0ZM10 2C7.19624 2 5 4.13816 5 7C5 9.04693 6.62745 11.5656 10 14.5557C13.3726 11.5656 15 9.04693 15 7C15 4.13816 12.8038 2 10 2ZM10 4C11.6569 4 13 5.34315 13 7C13 8.65685 11.6569 10 10 10C8.34315 10 7 8.65685 7 7C7 5.34315 8.34315 4 10 4ZM10 6C9.44772 6 9 6.44772 9 7C9 7.55228 9.44772 8 10 8C10.5523 8 11 7.55228 11 7C11 6.44772 10.5523 6 10 6Z" fill="#007EA7"/>
</svg>
