<svg width="118" height="118" viewBox="0 0 118 118" fill="none" xmlns="http://www.w3.org/2000/svg">
<path d="M95.8337 75.3533C108.952 79.3338 117.333 85.7187 117.333 93.9998C117.333 108.622 91.2013 117.333 58.9998 117.333C26.7984 117.333 0.666753 108.622 0.666748 93.9998C0.666968 85.7188 9.04798 79.3338 22.1658 75.3533L23.0769 76.5857C25.2321 79.467 27.5967 82.3916 30.1687 85.3601C19.3063 87.8068 12.3333 91.2796 12.3328 93.9998C12.3328 98.707 33.2116 105.667 58.9998 105.667C84.7881 105.667 105.667 98.707 105.667 93.9998C105.666 91.2796 98.6934 87.8068 87.8308 85.3601C90.7705 81.9674 93.4387 78.6323 95.8337 75.3533ZM58.9998 0.666748C81.7293 0.666748 99.8326 18.2915 99.8328 41.4998C99.8328 57.8985 88.2339 75.5469 65.3943 95.49L58.9998 101.073L52.6052 95.49C29.7658 75.547 18.1667 57.8984 18.1667 41.4998C18.1669 18.2916 36.2704 0.666918 58.9998 0.666748ZM58.9998 12.3328C42.6448 12.3329 29.8329 24.806 29.8328 41.4998C29.8328 53.4403 39.3261 68.1346 58.9998 85.5769C78.6737 68.1345 88.1667 53.4404 88.1667 41.4998C88.1666 24.8058 75.3549 12.3328 58.9998 12.3328ZM58.9998 23.9998C68.6646 23.9998 76.4996 31.8349 76.4998 41.4998C76.4998 51.1647 68.6647 58.9998 58.9998 58.9998C49.3349 58.9996 41.4998 51.1646 41.4998 41.4998C41.4999 31.835 49.335 23.9999 58.9998 23.9998ZM58.9998 35.6667C55.7784 35.6669 53.1669 38.2784 53.1667 41.4998C53.1667 44.7213 55.7782 47.3336 58.9998 47.3337C62.2214 47.3337 64.8337 44.7214 64.8337 41.4998C64.8336 38.2782 62.2213 35.6667 58.9998 35.6667Z" fill="#007EA7"/>
</svg>
