<svg width="104" height="104" viewBox="0 0 104 104" fill="none" xmlns="http://www.w3.org/2000/svg">
<path d="M42.0828 0.416748C65.0944 0.416748 83.7494 19.0712 83.7498 42.0828C83.7498 51.7114 80.4815 60.576 74.9968 67.6316L103.057 95.6921L95.6921 103.057L67.6316 74.9968C60.576 80.4815 51.7114 83.7498 42.0828 83.7498C19.0712 83.7494 0.416748 65.0944 0.416748 42.0828C0.417101 19.0714 19.0714 0.417101 42.0828 0.416748ZM42.0837 10.8337C24.8248 10.8337 10.8337 24.8248 10.8337 42.0837C10.8339 59.3425 24.8249 73.3337 42.0837 73.3337C59.3424 73.3336 73.3336 59.3424 73.3337 42.0837C73.3337 24.8249 59.3425 10.8339 42.0837 10.8337Z" fill="white"/>
</svg>
