<svg width="115" height="105" viewBox="0 0 115 105" fill="none" xmlns="http://www.w3.org/2000/svg">
<path d="M57.5002 0.416748C89.1412 0.416924 114.792 26.0669 114.792 57.7078C114.792 75.9559 106.196 92.786 91.884 103.539L90.4934 104.583H24.5071L23.1165 103.539C8.80461 92.786 0.208252 75.9561 0.208252 57.7078C0.208602 26.0667 25.8591 0.416749 57.5002 0.416748ZM57.5002 10.8328C31.6121 10.8328 10.6256 31.8197 10.6252 57.7078C10.6252 72.0671 17.1201 85.3387 28.0344 94.1667H86.9661C97.8802 85.3387 104.375 72.0669 104.375 57.7078C104.375 31.8198 83.3882 10.8329 57.5002 10.8328ZM85.2043 29.4451L70.967 49.783C72.3374 52.1065 73.1251 54.815 73.1252 57.7078C73.1252 66.3371 66.1295 73.3326 57.5002 73.3328C48.8708 73.3328 41.8752 66.3372 41.8752 57.7078C41.8756 49.0786 48.871 42.0828 57.5002 42.0828C59.4193 42.0828 61.2578 42.4293 62.9563 43.0623L76.6711 23.4714L85.2043 29.4451ZM57.5002 52.4998C54.6238 52.4998 52.2913 54.8323 52.2913 57.7087C52.2914 60.5851 54.6239 62.9167 57.5002 62.9167C60.3765 62.9166 62.7081 60.585 62.7083 57.7087C62.7083 54.8324 60.3766 52.4999 57.5002 52.4998Z" fill="white"/>
</svg>
