<svg width="105" height="95" viewBox="0 0 105 95" fill="none" xmlns="http://www.w3.org/2000/svg">
<path d="M83.7498 26.667H104.584V78.75C104.584 87.2445 97.805 94.156 89.3621 94.3701L88.9587 94.375H16.0417C7.4123 94.375 0.416748 87.3794 0.416748 78.75V0.625H83.7498V26.667ZM10.8337 78.75C10.8337 81.6265 13.1653 83.958 16.0417 83.958H74.2234C73.6476 82.329 73.3337 80.5762 73.3337 78.75V11.042H10.8337V78.75ZM83.7498 78.75C83.7498 81.6265 86.0823 83.958 88.9587 83.958C91.8351 83.9578 94.1667 81.6264 94.1667 78.75V37.083H83.7498V78.75ZM62.9167 73.542H21.2498V63.125H62.9167V73.542ZM62.9167 57.917H21.2498V47.5H62.9167V57.917ZM42.0837 42.292H21.2498V21.458H42.0837V42.292ZM62.9167 37.083H47.2917V26.667H62.9167V37.083Z" fill="white"/>
</svg>
