<svg width="105" height="105" viewBox="0 0 105 105" fill="none" xmlns="http://www.w3.org/2000/svg">
<path d="M104.583 10.8328H99.3748V62.9167C99.3746 68.6696 94.7106 73.3328 88.9578 73.3328H57.7078V80.8005L81.2214 94.9089L75.8621 103.841L57.7078 92.949V104.583H47.2917V92.949L29.1375 103.841L23.7781 94.9089L47.2917 80.8005V73.3328H16.0417C10.289 73.3326 5.62493 68.6695 5.62476 62.9167V10.8328H0.416748V0.416748H104.583V10.8328ZM16.0417 62.9167H88.9578V10.8328H16.0417V62.9167ZM42.0837 52.4998H31.6667V31.6667H42.0837V52.4998ZM57.7087 52.4998H47.2917V21.2498H57.7087V52.4998ZM73.3337 52.4998H62.9167V36.8748H73.3337V52.4998Z" fill="white"/>
</svg>
