<svg width="121" height="121" viewBox="0 0 121 121" fill="none" xmlns="http://www.w3.org/2000/svg">
<path d="M120.917 12.1672H114.875V72.5833C114.875 79.2563 109.465 84.6669 102.792 84.6672H66.5422V93.3293L93.8167 109.695L87.5999 120.056L66.5422 107.421V120.917H54.4583V107.421L33.4006 120.056L27.1838 109.695L54.4583 93.3293V84.6672H18.2083C11.5351 84.6671 6.12542 79.2564 6.12524 72.5833V12.1672H0.083252V0.083252H120.917V12.1672ZM18.2083 72.5833H102.792V12.1672H18.2083V72.5833ZM48.4163 60.5002H36.3333V36.3333H48.4163V60.5002ZM66.5413 60.5002H54.4583V24.2502H66.5413V60.5002ZM84.6663 60.5002H72.5833V42.3752H84.6663V60.5002Z" fill="#007EA7"/>
</svg>
