<svg width="105" height="105" viewBox="0 0 105 105" fill="none" xmlns="http://www.w3.org/2000/svg">
<path d="M10.8337 52.4998C10.8337 75.5115 29.488 94.1666 52.4998 94.1667C64.9665 94.1667 75.6591 88.5485 82.7449 78.5417H73.3337V68.1248H99.3748V94.1667H88.9587V87.5505C79.9738 98.4247 67.1051 104.584 52.4998 104.584C23.7351 104.584 0.416748 81.2645 0.416748 52.4998H10.8337ZM52.5017 62.908C55.3791 62.908 57.7117 65.2405 57.7117 68.1169C57.7114 70.9932 55.379 73.325 52.5017 73.325C49.6245 73.3249 47.292 70.9932 47.2917 68.1169C47.2917 65.2405 49.6243 62.908 52.5017 62.908ZM57.7273 57.7H47.3074V26.45H57.7273V57.7ZM52.4998 0.416748C81.2645 0.416748 104.584 23.7351 104.584 52.4998H94.1667C94.1666 29.488 75.5115 10.8337 52.4998 10.8337C40.0331 10.8338 29.3414 16.452 22.2556 26.4587H31.6667V36.8748H5.62476V10.8337H16.0417V17.45C25.0266 6.57588 37.8945 0.416839 52.4998 0.416748Z" fill="white"/>
</svg>
