<svg width="121" height="121" viewBox="0 0 121 121" fill="none" xmlns="http://www.w3.org/2000/svg">
<path d="M12.1663 60.5002C12.1664 87.1939 33.8066 108.833 60.5002 108.833C74.9615 108.833 87.3638 102.316 95.5833 90.7083H84.6663V78.6252H114.875V108.833H102.791V101.158C92.3688 113.772 77.4422 120.916 60.5002 120.916C27.1331 120.916 0.0834272 93.8673 0.083252 60.5002H12.1663ZM60.5022 72.5735C63.8397 72.5736 66.5449 75.2781 66.5452 78.6145C66.5452 81.9511 63.8399 84.6563 60.5022 84.6565C57.1644 84.6565 54.4583 81.9512 54.4583 78.6145C54.4585 75.278 57.1645 72.5735 60.5022 72.5735ZM66.5637 66.5315H54.4758V30.2815H66.5637V66.5315ZM60.5002 0.083252C93.8673 0.0834285 120.916 27.1331 120.916 60.5002C108.833 60.5002 120.916 60.5002 108.833 60.5002C108.833 33.8066 87.1939 12.1664 60.5002 12.1663C46.0388 12.1663 33.6358 18.6835 25.4163 30.2913H36.3333V42.3752H6.12524V12.1663H18.2083V19.842C28.6308 7.22803 43.558 0.083252 60.5002 0.083252Z" fill="#007EA7"/>
</svg>
