<svg width="105" height="105" viewBox="0 0 105 105" fill="none" xmlns="http://www.w3.org/2000/svg">
<path d="M0.416748 0.416748C6.88316 0.416748 11.5545 1.58479 14.5164 4.54663C16.2613 6.29159 17.7953 8.58828 18.9568 11.1482C19.804 10.9492 20.696 10.8445 21.6208 10.8464L94.3787 16.0437C100.898 16.1588 107.276 21.5647 104.128 28.5886C103.515 29.9564 100.746 35.5266 96.3435 44.2908C94.5462 47.8686 92.7025 51.5313 90.8582 55.1873C89.8132 57.2581 89.8125 57.258 89.075 58.7185C88.7375 59.3865 88.6055 59.6474 88.5261 59.8044C87.0294 63.6539 83.8678 66.6285 79.9187 67.8816L79.1501 68.1248H26.656L26.5818 68.1208L16.2996 68.1189C13.3401 68.2659 10.9742 70.6323 10.8337 73.3337L10.824 78.2302C11.0029 81.2107 13.3857 83.5903 16.0417 83.7498H16.9304C19.0754 77.6811 24.8636 73.3337 31.6667 73.3337C38.4699 73.3337 44.258 77.6811 46.4031 83.7498H58.5974C60.7425 77.6812 66.5306 73.3337 73.3337 73.3337C81.963 73.3339 88.9587 80.3294 88.9587 88.9587C88.9586 97.5879 81.9629 104.584 73.3337 104.584C66.5305 104.584 60.7424 100.235 58.5974 94.1667H46.4031C44.2581 100.235 38.47 104.584 31.6667 104.584C24.8611 104.584 19.0716 100.232 16.9285 94.1599L15.7458 94.158C7.51429 93.6898 0.921019 87.1038 0.416748 78.5417L0.423584 73.075C0.835065 64.7855 7.44985 58.1538 15.989 57.7107L10.8855 21.9871L10.8337 21.2498C10.8336 17.8804 9.11868 13.8804 7.15015 11.9119C6.63912 11.4016 4.36616 10.8337 0.416748 10.8337V0.416748ZM31.6667 83.7498C28.7903 83.7498 26.4587 86.0823 26.4587 88.9587C26.4589 91.8351 28.7904 94.1667 31.6667 94.1667C34.5431 94.1667 36.8746 91.8351 36.8748 88.9587C36.8748 86.0823 34.5432 83.7498 31.6667 83.7498ZM73.3337 83.7498C70.4573 83.7498 68.1248 86.0823 68.1248 88.9587C68.1249 91.8351 70.4574 94.1667 73.3337 94.1667C76.21 94.1666 78.5416 91.835 78.5417 88.9587C78.5417 86.0824 76.2101 83.7499 73.3337 83.7498ZM26.407 56.9792C26.4569 57.3321 26.7122 57.6158 27.0466 57.7087H77.3406C78.0354 57.3304 78.5754 56.707 78.8474 55.949L79.1023 55.3582C79.2245 55.1164 79.2252 55.1157 79.7771 54.0232C80.5138 52.5643 80.5136 52.5635 81.5574 50.4949C83.3992 46.8439 85.241 43.1868 86.9597 39.7654L87.0349 39.615C90.0457 33.6209 92.3458 29.0126 93.6111 26.4324L21.3035 21.2537L26.407 56.9792Z" fill="white"/>
</svg>
