<svg width="103" height="105" viewBox="0 0 103 105" fill="none" xmlns="http://www.w3.org/2000/svg">
<path d="M51.5002 0.416748C64.4638 0.41692 75.8351 9.87079 77.3665 21.2498H92.3694C98.1224 21.2498 102.786 25.9138 102.786 31.6667C102.786 32.1595 102.752 32.6516 102.682 33.1394L93.7532 95.6394C93.0201 100.771 88.6245 104.584 83.4407 104.584H19.5588C14.375 104.584 9.97945 100.771 9.24634 95.6394L0.318608 33.1394C-0.494735 27.4444 3.46247 22.1688 9.15747 21.3552C9.64529 21.2856 10.1374 21.2498 10.6301 21.2498H25.6331C27.1644 9.87067 38.5366 0.416748 51.5002 0.416748ZM19.5588 94.1667H83.4407L92.3694 31.6667H77.5413V42.0837H67.1252V31.6667H35.8752V42.0837H25.4583V31.6667H10.6301L19.5588 94.1667ZM51.5002 10.8337C44.2189 10.8337 37.8336 15.719 36.2502 21.2498H66.7493C65.1659 15.7191 58.7814 10.8339 51.5002 10.8337Z" fill="white"/>
</svg>
