<svg width="113" height="125" viewBox="0 0 113 125" fill="none" xmlns="http://www.w3.org/2000/svg">
<path d="M73.375 0.625C79.5882 0.625 84.625 5.6618 84.625 11.875V17.5H101.5C107.713 17.5 112.75 22.5368 112.75 28.75V40C112.75 46.2132 107.713 51.25 101.5 51.25H101.049L95.875 113.125C95.875 119.338 90.8382 124.375 84.625 124.375H28.375C22.1618 124.375 17.1251 119.338 17.1445 113.592L11.9492 51.25H11.5C5.2868 51.25 0.25 46.2132 0.25 40V28.75C0.25 22.5368 5.2868 17.5 11.5 17.5H28.375V11.875C28.375 5.6618 33.4118 0.625 39.625 0.625H73.375ZM28.375 113.125H84.625L84.6445 112.658L89.7617 51.25H23.2363L28.375 113.125ZM11.5 40H101.5V28.75H11.5V40ZM39.625 17.5H73.375V11.875H39.625V17.5Z" fill="#007EA7"/>
</svg>
